<svg width="17" height="17" fill="none" xmlns="http://www.w3.org/2000/svg"><path d="M4.94 9.707c.477 0 .939-.03 1.376-.088V4.83a10.596 10.596 0 00-1.377-.088C2.211 4.741 0 5.744 0 6.981v.486c0 1.237 2.211 2.24 4.94 2.24zm0 2.502c.477 0 .939-.031 1.376-.089v-1.404c-.437.058-.899.089-1.377.089-2.38 0-4.368-.764-4.835-1.781A1.093 1.093 0 000 9.483v.485c0 1.238 2.211 2.24 4.94 2.24zm1.376 1.118v-.11c-.437.058-.899.09-1.377.09-2.38 0-4.368-.765-4.835-1.782a1.092 1.092 0 00-.104.459v.486c0 1.237 2.211 2.24 4.94 2.24.545 0 1.07-.04 1.56-.115a1.767 1.767 0 01-.184-.783v-.485zM12.06.947c-2.727 0-4.938 1.003-4.938 2.24v.486c0 1.237 2.21 2.24 4.939 2.24C14.789 5.913 17 4.91 17 3.673v-.486c0-1.237-2.211-2.24-4.94-2.24z" fill="#000"/><path d="M12.06 7.011c-2.38 0-4.368-.764-4.835-1.781a1.092 1.092 0 00-.103.459v.485c0 1.238 2.21 2.24 4.939 2.24 2.728 0 4.939-1.002 4.939-2.24V5.69c0-.158-.036-.311-.104-.46-.467 1.018-2.454 1.782-4.835 1.782z" fill="#000"/><path d="M12.06 9.512c-2.38 0-4.368-.764-4.835-1.781a1.092 1.092 0 00-.103.459v.485c0 1.238 2.21 2.24 4.939 2.24 2.728 0 4.939-1.002 4.939-2.24V8.19c0-.158-.036-.311-.104-.46-.467 1.018-2.454 1.782-4.835 1.782z" fill="#000"/><path d="M12.06 12.148c-2.38 0-4.368-.764-4.835-1.781a1.093 1.093 0 00-.103.458v.486c0 1.238 2.21 2.24 4.939 2.24 2.728 0 4.939-1.002 4.939-2.24v-.486c0-.157-.036-.31-.104-.458-.467 1.017-2.454 1.781-4.835 1.781z" fill="#000"/><path d="M12.06 14.649c-2.38 0-4.368-.764-4.835-1.781a1.093 1.093 0 00-.103.458v.486c0 1.238 2.21 2.24 4.939 2.24 2.728 0 4.939-1.002 4.939-2.24v-.486c0-.157-.036-.31-.104-.458-.467 1.017-2.454 1.781-4.835 1.781z" fill="#000"/></svg>