<svg width="17" height="17" fill="none" xmlns="http://www.w3.org/2000/svg"><path d="M4.94 9.707c.477 0 .939-.03 1.376-.088V4.83a10.596 10.596 0 00-1.377-.088C2.211 4.741 0 5.744 0 6.981v.486c0 1.237 2.211 2.24 4.94 2.24zm0 2.501c.477 0 .939-.03 1.376-.088v-1.404c-.437.058-.899.089-1.377.089-2.38 0-4.368-.764-4.835-1.782a1.093 1.093 0 00-.104.46v.485c0 1.237 2.211 2.24 4.94 2.24zm1.376 1.118v-.109a10.67 10.67 0 01-1.377.089c-2.38 0-4.368-.764-4.835-1.782a1.092 1.092 0 00-.104.46v.485c0 1.237 2.211 2.24 4.94 2.24.545 0 1.07-.04 1.56-.114a1.767 1.767 0 01-.184-.783v-.486zM12.06.947c-2.727 0-4.938 1.003-4.938 2.24v.486c0 1.237 2.211 2.24 4.939 2.24S17 4.91 17 3.673v-.486c0-1.237-2.212-2.24-4.94-2.24z" fill="#EF476F"/><path d="M12.06 7.01c-2.38 0-4.368-.763-4.834-1.78a1.092 1.092 0 00-.104.458v.486c0 1.237 2.211 2.24 4.939 2.24S17 7.411 17 6.174v-.486c0-.157-.037-.31-.105-.459-.467 1.018-2.454 1.782-4.835 1.782z" fill="#EF476F"/><path d="M12.06 9.512c-2.38 0-4.368-.764-4.834-1.782a1.092 1.092 0 00-.104.46v.485c0 1.237 2.211 2.24 4.939 2.24S17 9.912 17 8.675V8.19c0-.157-.037-.31-.105-.459-.467 1.018-2.454 1.782-4.835 1.782z" fill="#EF476F"/><path d="M12.06 12.149c-2.38 0-4.368-.765-4.834-1.782a1.092 1.092 0 00-.104.459v.486c0 1.237 2.211 2.24 4.939 2.24S17 12.549 17 11.312v-.486c0-.157-.037-.31-.105-.459-.467 1.017-2.454 1.781-4.835 1.781z" fill="#EF476F"/><path d="M12.06 14.649c-2.38 0-4.368-.765-4.834-1.782a1.093 1.093 0 00-.104.459v.486c0 1.237 2.211 2.24 4.939 2.24S17 15.049 17 13.812v-.486c0-.157-.037-.31-.105-.459-.467 1.017-2.454 1.781-4.835 1.781z" fill="#EF476F"/></svg>