<svg width="24" height="24" fill="none" xmlns="http://www.w3.org/2000/svg"><path fill-rule="evenodd" clip-rule="evenodd" d="M9.834 20.883c.64.626 1.397.93 1.91 1.075.629.205 1.187.015 1.568-.236.37-.243.634-.576.794-.83.164-.26.217-.537.22-.766l.035-2.91 2.967-3.75c.349-.44.583-.957.686-1.503l.015-.08V11.8l.044-3.53V4.244a2.198 2.198 0 00-2.17-2.198l-7.433-.09c-3.116-.038-4.623 1.83-4.99 3.025-.678 1.825-1.15 4.277-1.442 6.242-.304 2.044 1.305 3.774 3.3 3.799l3.463.043a.283.283 0 01.043.064c.009.016.014.03.018.04v.002a22.783 22.783 0 00-.178 2.736c-.017 1.34.473 2.313 1.15 2.976zm2.645-3.797l-.035 2.899c-.016.02-.032.04-.05.058a.664.664 0 01-.118.106l-.002.001h-.003c-.34-.095-.779-.28-1.12-.613-.312-.306-.594-.785-.584-1.607.014-1.077.082-1.93.165-2.529.078-.563-.14-1.093-.415-1.456-.27-.357-.754-.755-1.4-.763l-3.555-.043c-.927-.012-1.587-.794-1.461-1.64.289-1.947.743-4.253 1.355-5.888l.012-.033.01-.034c.123-.424.91-1.732 3.169-1.705l7.433.092c.171.002.31.142.31.314v4.007l-.043 3.433a1.567 1.567 0 01-.296.613l-3.033 3.833a1.57 1.57 0 00-.339.955zm8.392-4.71c.622 0 1.127-.504 1.127-1.127V4.19a1.128 1.128 0 10-2.255 0v7.06c0 .623.505 1.128 1.128 1.128z" fill="#200E32" fill-opacity=".26"/></svg>