<svg width="24" height="24" fill="none" xmlns="http://www.w3.org/2000/svg"><path fill-rule="evenodd" clip-rule="evenodd" d="M14.165 3.116c-.64-.626-1.397-.93-1.91-1.074-.628-.206-1.186-.016-1.567.235-.37.244-.635.577-.794.83a1.468 1.468 0 00-.22.767l-.036 2.91-2.967 3.75a3.45 3.45 0 00-.686 1.505l-.015.08v.082l-.044 3.512v4.042c0 1.204.968 2.184 2.17 2.198l7.434.092c3.116.038 4.623-1.83 4.99-3.025.678-1.826 1.15-4.277 1.443-6.242.303-2.045-1.306-3.776-3.301-3.8l-3.463-.043a.313.313 0 01-.06-.104l-.001-.002c.094-.69.164-1.614.178-2.736.016-1.34-.473-2.313-1.15-2.977zM11.52 6.914l.036-2.9a.668.668 0 01.049-.057.665.665 0 01.119-.106l.001-.001h.003c.34.095.78.28 1.12.613.313.306.595.785.584 1.607a20.778 20.778 0 01-.164 2.528c-.079.563.14 1.094.415 1.457.27.357.754.755 1.4.763l3.556.043c.926.012 1.586.794 1.46 1.64-.289 1.948-.743 4.254-1.354 5.889l-.013.033-.01.033c-.123.424-.91 1.733-3.169 1.705L8.12 20.07a.314.314 0 01-.31-.314V15.73l.042-3.415a1.57 1.57 0 01.297-.614l3.033-3.833a1.57 1.57 0 00.338-.955zm-8.392 4.709c-.623 0-1.128.505-1.128 1.127v7.06a1.128 1.128 0 102.255 0v-7.06c0-.623-.505-1.127-1.127-1.127z" fill="#200E32" fill-opacity=".26"/></svg>