<svg width="20" height="21" fill="none" xmlns="http://www.w3.org/2000/svg"><path fill-rule="evenodd" clip-rule="evenodd" d="M8.665 0C3.869 0 0 3.927 0 8.747s3.869 8.746 8.665 8.746c4.796 0 8.664-3.926 8.664-8.746a8.79 8.79 0 00-2.534-6.181A8.624 8.624 0 008.666 0zM2.09 8.747c0-3.687 2.954-6.657 6.575-6.657 1.74 0 3.41.699 4.645 1.946a6.699 6.699 0 011.93 4.71c0 3.688-2.955 6.657-6.575 6.657S2.09 12.433 2.09 8.747zm15.021 6.898a1.045 1.045 0 10-1.478 1.478l2.583 2.583a1.045 1.045 0 101.478-1.478l-2.583-2.583z" fill="#fff"/></svg>