<svg width="220" height="50" fill="none" xmlns="http://www.w3.org/2000/svg"><path fill-rule="evenodd" clip-rule="evenodd" d="M18.635 49.5c-1.534 0-1.444-.09-3.61-1.342-2.165-1.253-5.052-3.222-6.225-4.475-1.173-1.253-2.707-3.4-3.068-4.385-.451-1.163-1.083-2.684-.812-3.49.18-.447.541-.895.902-2.237.361-1.163 0-3.311 0-4.027 0-.537-.45-1.79-.902-2.774-.451-.895-2.075-2.238-2.707-3.132-.631-.895-1.804-3.67-1.985-4.743-.18-1.074-.36-4.296-.09-5.37.451-2.237.993-3.49 1.534-4.564.631-1.432 3.248-4.116 4.15-4.743C7.807 2.876 9.882 1.713 12.41.997 14.123.46 15.386.28 16.83.19c1.805-.268 6.587-.268 8.391.09 2.707.626 5.414 1.7 7.219 3.042 1.714 1.343 2.797 2.417 4.15 4.654.902 1.432 1.263 3.222 1.714 4.564.451 1.432.542 5.1.542 6.085 0 .985-.361 2.148-.451 2.327-.09.09-.993.805-.993 1.342s0 .716.27 1.164c.271.447.993 2.058 1.354 2.505.361.448 1.444 2.238 1.714 2.864.271.626.722 1.253.361 1.969-.36.716-1.443.537-2.165.626-.632.09-1.534 0-1.714.627-.09.358.18.805.18.805.541.447.27 1.342-.27 1.61-.452.27-.542.27-.993.448-.451.18-.361.18-.09.627.27.447.27.984.18 1.342-.09.358-.722.269-1.263.447-.451.18-.902.358-.902.985 0 .358.27 1.163 0 1.969-.271.715-1.173 1.7-1.985 2.058-.813.358-2.437.358-3.339.179-.902-.18-2.436-.716-3.068-.895-.54-.179-1.082.09-1.804.805-.722.716-1.534 2.059-2.075 2.953-.542.895-1.534 2.506-2.076 3.043-.18.805-1.082 1.074-1.082 1.074z" fill="#35B34A"/><path fill-rule="evenodd" clip-rule="evenodd" d="M9.07 11.915h3.88v12.439h1.083v3.221h1.985c.18-.268.36-.447.451-.626l.09-.09h-1.804v-3.49h-1.083V11.29h-1.714V3.502c-.722.268-1.354.537-1.985.894h1.443V5.92H9.883V4.397c-.452.269-.813.537-1.173.806C6.093 7.26 5.642 8.246 4.92 9.946c-.09.179-.09.268-.18.447-.271.537-.632 1.253-.993 1.88-.451.805-.902 1.61-.992 2.058-.452 1.521-.542 4.295.18 5.459.18.268.451.537.812.805-.18-.268-.36-.626-.36-1.074 0-.805.721-1.521 1.533-1.521.812 0 1.444.537 1.534 1.342h4.782v-.716h-.812v-1.79h.812v-.805H6.454c-.18.716-.722 1.164-1.534 1.164s-1.534-.716-1.534-1.522c0-.805.722-1.521 1.534-1.521.722 0 1.353.537 1.534 1.163h5.413v2.148h-.812V18h.813v2.058H6.364c-.18.627-.812 1.074-1.444 1.074h-.36c.27.179.63.268.901.447.542.269.993.806 1.264 1.343h3.79v2.505h2.616v3.938c.36.358.721.626 1.173.626h.27c.18-.268.632-1.073 1.173-1.79h-2.075v-3.4H12.59V12.362H9.07c-.09.716-.721 1.253-1.533 1.253-.812 0-1.534-.716-1.534-1.521 0-.806.722-1.522 1.534-1.522s1.443.537 1.533 1.343zm23.55 2.326v-4.206l1.173-.09c.451.717.812 1.254.902 1.522v.269c.18 1.073.451 3.58 0 4.474-.18.268-.36.627-.541.895h-3.158v2.506h-.18c-.362-.09-.813-.09-1.174-.09-.631 0-.992.09-1.263.269H20.8v-4.385h5.414V6.814h-3.88v-3.67c1.534.18 3.429.627 4.602 1.074v13.066h-2.888c-.09-.627-.631-1.074-1.353-1.074s-1.354.627-1.354 1.342c0 .716.632 1.343 1.354 1.343.631 0 1.173-.448 1.353-1.074h3.339V4.397c.27.09.541.269.812.358.992.448 1.985.985 2.616 1.522.361.358 1.083 1.163 1.805 2.058h-1.714v5.817h-.813v2.864c-.27-.18-.54-.358-.902-.358-.722 0-1.353.626-1.353 1.342 0 .716.631 1.342 1.353 1.342.542 0 .993-.268 1.173-.716h.09V14.51h.813V8.693h1.624c.18.268.45.537.631.805l-1.353.09v4.653c-.632.09-1.083.627-1.083 1.343s.632 1.342 1.353 1.342c.722 0 1.354-.626 1.354-1.342-.09-.716-.541-1.253-1.173-1.343zm1.083 3.58l-.542.537c-.541.537-1.083.895-1.534 1.074v-1.7h2.076v.089zm.631-.09c.27-.358.542-.805.812-1.253.542-.984.27-3.49.09-4.742v-.269c-.18-1.163-3.428-4.743-4.15-5.459-.632-.626-1.714-1.163-2.707-1.61-.27-.09-.541-.269-.812-.358-1.534-.716-4.782-1.343-6.587-1.432-.811-.18-1.804-.18-2.797-.18-1.894 0-3.609.09-4.51.27-1.715.268-3.79 1.163-5.144 2.147-2.707 2.148-3.158 3.222-3.97 4.922-.09.179-.09.358-.18.447-.271.537-.632 1.253-.993 1.88-.451.895-.902 1.7-1.083 2.147-.45 1.522-.631 4.475.271 5.817.541.805 1.714 1.343 2.707 1.79.812.358 1.444 1.7 1.444 1.969 0 .537 1.714 2.505 2.797 2.953.27.09.721.179 1.082.268.361.09.903.18.993.269v.09c0 .357 0 .894.632 1.431l.27.268v.09h.09l.09.09c.452.447.993.984 1.715.984.18 0 .27 0 .451-.09h.09v-.09s1.444-2.236 1.895-2.863c.09-.179.27-.268.361-.447h.18v-.09l.18-.179c.452-.358.903-.716.993-1.163.09-.537 1.534-1.61 1.985-1.7.451-.09 1.444-.09 2.436 0 .722.09 1.083-.358 1.444-.716.18-.269.451-.448.722-.537h.18c.542-.09 1.354-.537 1.985-.985h.09v-.089c.181-.179.452-.358.542-.537.27-.358.451-.537.451-.537.09 0 .09 0 .18-.09.09-.089.452-.178.993-.178.361 0 .722 0 1.083.09h.27c.993 0 2.166-.985 2.527-1.433.36-.268.631-.537.902-.895zm-6.406 2.417l-.27.268-.271.268h-7.58v-6.443h5.414V7.977h-4.06V2.966c.18 0 .451 0 .632.09V7.26h3.88v7.696h-5.414v5.19h7.669zM26.575 21.4c-.451.268-.993.536-1.354.536-.09 0-.09 0-.18.09h-6.497l.09-3.49h-.36v-5.548h5.774v-3.67h-3.97V2.876h.542v5.638h4.06v5.011h-5.414v7.786h7.309v.09zm-2.256 1.073l-.27.269c-.362.358-.632.626-1.084.537-.54-.09-.992-.09-1.443-.09-.361 0-.722 0-.993.09v-.09h-3.158v-2.863h-.812v-8.323h1.715V2.876h1.353v6.801h3.97v2.774h-5.774v6.444h.36l-.09 3.49h6.226v.09zm-17.234.895c.09.18.09.358.09.448 0 .268 1.535 2.058 2.527 2.505.18.09.632.18.993.18.721.089 1.353.178 1.353.626v.179c0 .358 0 .716.451 1.074v-2.685H9.883V23.19H7.085v.18zm12.632.269c-.27.179-.631.447-.902.716H16.65v-2.685h-1.264V10.93h1.264V2.876h1.173v8.68h-1.715v9.129h.812v2.863h2.797v.09zM18.364 24.8c-.18.179-.27.358-.27.537-.091.268-.362.626-.723.895h-1.894v-3.49h-1.083v-12.17H12.68v-7.25c.27-.089.541-.089.721-.178v1.252h1.534v-1.43c.361 0 .722 0 1.083-.09v7.607h-1.263v11.633h1.263v2.685h2.346zM9.792 9.23c0 .358-.27.626-.631.626h-.903a.614.614 0 01-.631-.626c0-.358.27-.627.631-.627h.903c.27-.089.631.269.631.627zm0-2.058c0 .358-.27.626-.631.626h-.903c-.45 0-.721-.268-.721-.626s.27-.627.631-.627h.902c.361 0 .722.269.722.627zm11.098 3.937c0 .358-.27.627-.631.627h-.903a.614.614 0 01-.631-.627c0-.358.27-.626.631-.626h.903c.36 0 .631.268.631.626zm4.602-6.175c0 .358-.27.627-.632.627h-.902a.614.614 0 01-.632-.627c0-.358.271-.626.632-.626h.902c.361 0 .632.268.632.626zm-12.18 4.743h1.804v-1.7H13.31v1.7zm0-2.505h1.804v-1.7H13.31v1.7zm7.94 4.743h1.804v-1.522H21.25v1.522zm6.586 2.953h1.534v-1.522h-1.534v1.522zm0-3.132h1.534v-1.522h-1.534v1.522zm0-2.954h1.534v-1.61h-1.534v1.61zM7.537 10.93c-.632 0-1.083.448-1.083 1.074 0 .627.451 1.074 1.083 1.074.631 0 1.082-.447 1.082-1.074 0-.537-.45-1.074-1.082-1.074zM4.92 14.51c-.632 0-1.083.447-1.083 1.074 0 .626.451 1.073 1.083 1.073.632 0 1.083-.447 1.083-1.073 0-.537-.542-1.074-1.083-1.074zm0 3.937c-.632 0-1.083.448-1.083 1.074 0 .627.451 1.074 1.083 1.074.632 0 1.083-.447 1.083-1.074 0-.537-.542-1.074-1.083-1.074zm27.43-3.758c-.452 0-.903.358-.903.895a.9.9 0 00.902.895c.451 0 .903-.358.903-.895s-.361-.895-.903-.895zm-3.34 2.416c-.45 0-.902.358-.902.895a.9.9 0 00.903.895c.45 0 .902-.358.902-.895s-.36-.895-.902-.895zm-6.315-.537c-.451 0-.902.358-.902.895a.9.9 0 00.902.895c.451 0 .902-.358.902-.895s-.451-.895-.902-.895z" fill="#fff"/><path fill-rule="evenodd" clip-rule="evenodd" d="M65.553 11.825a5.124 5.124 0 011.624 1.074c.451.448.812.984 1.083 1.61.27.627.451 1.254.451 1.97v1.52c0 .359-.18.627-.541.717l-3.7.984c-.36.09-.541 0-.541-.447v-2.685c0-.268-.09-.537-.27-.716-.181-.179-.452-.268-.722-.268h-.361c-.271 0-.542.09-.722.268-.18.18-.27.448-.27.716v3.67c0 .268.09.536.18.805.09.178.27.447.45.626l5.324 4.027c.451.358.722.805.812 1.163.09.358.18.806.27 1.343v6.98c0 .716-.18 1.342-.45 1.969a5.076 5.076 0 01-1.083 1.61 5.123 5.123 0 01-1.624 1.074c-.632.269-1.263.448-1.985.448h-1.534c-.722 0-1.353-.18-1.985-.448a5.122 5.122 0 01-1.624-1.074 5.075 5.075 0 01-1.083-1.61c-.27-.627-.451-1.253-.451-1.97v-3.937c0-.358.18-.626.541-.716l3.7-.984c.36-.09.541 0 .541.447v5.012c0 .268.09.537.27.716.181.179.452.268.723.268h.36c.271 0 .542-.09.722-.268.18-.18.271-.448.271-.716v-5.37c0-.357-.09-.626-.18-.894a1.946 1.946 0 00-.452-.716l-5.323-4.027c-.451-.358-.722-.716-.902-1.164-.18-.358-.271-.895-.271-1.521v-4.832c0-.716.18-1.343.451-1.97a5.076 5.076 0 011.083-1.61 5.124 5.124 0 011.624-1.074c.632-.268 1.263-.447 1.985-.447h1.534c.722 0 1.443.179 2.075.447zm19.94 4.117a.27.27 0 010 .358L79.9 26.68l5.504 12.887c.09.179 0 .268 0 .358-.09.09-.18.179-.36.179h-4.061c-.18 0-.27-.09-.451-.18-.18-.089-.27-.178-.27-.357l-2.978-6.712-.722 1.343v5.369c0 .358-.18.537-.542.537h-3.61c-.36 0-.541-.18-.541-.537V16.3c0-.358.18-.537.541-.537h3.61c.36 0 .54.179.54.537v7.07l3.79-7.16c.18-.358.361-.447.813-.447h4.06c.18 0 .27 0 .27.179zm7.58 23.625c0 .358-.181.537-.542.537h-3.609c-.36 0-.541-.18-.541-.537V16.3c0-.358.18-.537.541-.537h3.61c.36 0 .54.179.54.537v23.267zm14.346-3.67v3.58c0 .358-.181.537-.542.537h-9.293c-.361 0-.541-.179-.541-.537V16.21c0-.358.18-.537.54-.537h3.61c.361 0 .541.18.541.537v19.061h5.053c.451.09.632.269.632.627zm13.534 0v3.58c0 .358-.181.537-.542.537h-9.293c-.361 0-.541-.179-.541-.537V16.21c0-.358.18-.537.541-.537h3.609c.361 0 .541.18.541.537v19.061h5.053c.451.09.632.269.632.627zm12.902-23.624v3.58c0 .357-.18.536-.541.536h-4.692v5.817h4.06c.361 0 .542.179.542.537v3.58c0 .357-.181.536-.542.536h-4.06v12.529c0 .358-.18.537-.541.537h-3.609c-.361 0-.542-.18-.542-.537V12.273c0-.358.181-.537.542-.537h8.932c.271-.09.451.09.451.537zm13.895 27.294c.091.358-.09.537-.451.537H143.6c-.361 0-.541-.18-.632-.537l-.361-4.027h-2.526l-.361 4.027c-.09.358-.271.537-.631.537h-3.7c-.361 0-.541-.18-.451-.537l3.068-23.267c.09-.358.27-.537.631-.537h5.414c.361 0 .632.179.632.537l3.067 23.267zm11.008-23.715a5.116 5.116 0 011.624 1.074c.451.448.812.984 1.083 1.61.271.627.451 1.254.451 1.97v2.505c0 .358-.18.627-.541.716l-3.7.537c-.36.09-.541 0-.541-.447v-3.132c0-.269-.09-.537-.271-.716-.18-.18-.451-.269-.721-.269h-.361c-.271 0-.542.09-.722.269-.181.179-.271.447-.271.716v14.318c0 .268.09.537.271.716.18.179.451.268.722.268h.361c.27 0 .541-.09.721-.268.181-.18.271-.448.271-.716V30.17c0-.358.181-.537.541-.447l3.7.447c.361.09.541.358.541.716v4.296c0 .716-.18 1.342-.451 1.969a5.084 5.084 0 01-1.083 1.61 5.116 5.116 0 01-1.624 1.074c-.631.269-1.263.448-1.985.448h-1.534c-.722 0-1.353-.18-1.985-.448a5.127 5.127 0 01-1.624-1.074 5.084 5.084 0 01-1.083-1.61c-.27-.627-.451-1.253-.451-1.97V20.596c0-.716.181-1.342.451-1.969a5.085 5.085 0 011.083-1.61 5.13 5.13 0 011.624-1.074c.632-.269 1.263-.448 1.985-.448h1.534c.722-.09 1.354.09 1.985.358zm16.331.448v3.58c0 .357-.18.536-.541.536h-2.887v19.061c0 .358-.181.537-.542.537h-3.609c-.18 0-.27-.09-.361-.179a.682.682 0 01-.18-.447V20.506h-2.887c-.361 0-.542-.18-.542-.537v-3.58c0-.358.181-.537.542-.537h10.556c.271-.09.451.09.451.448zm13.986 18.971c0 .716-.181 1.343-.452 1.97a5.065 5.065 0 01-1.082 1.61 5.127 5.127 0 01-1.624 1.074c-.632.268-1.264.447-1.985.447h-1.534c-.722 0-1.354-.179-1.985-.447a5.116 5.116 0 01-1.624-1.074 5.084 5.084 0 01-1.083-1.61c-.271-.627-.451-1.254-.451-1.97V20.595c0-.716.18-1.342.451-1.969a5.085 5.085 0 011.083-1.61 5.118 5.118 0 011.624-1.074c.631-.269 1.263-.448 1.985-.448h1.534c.721 0 1.353.18 1.985.448a5.13 5.13 0 011.624 1.073c.451.448.812.985 1.082 1.611.271.627.452 1.253.452 1.97V35.27zm8.03 4.296c0 .358-.181.537-.632.537h-3.609c-.361 0-.541-.18-.541-.537V16.3c0-.358.18-.537.541-.537H199c.721 0 1.353.179 1.985.447a5.127 5.127 0 011.624 1.074 5.06 5.06 0 011.082 1.61c.271.627.452 1.254.452 1.97v5.011c0 .984-.271 1.88-.903 2.685-.631.805-1.353 1.431-2.165 1.879l3.88 9.128c.09.358-.091.537-.451.537h-3.7a.692.692 0 01-.451-.18.493.493 0 01-.271-.447l-2.977-7.517v7.607zm22.827-23.625a.269.269 0 010 .358l-4.691 14.407v8.86c0 .358-.181.537-.542.537H211c-.361 0-.541-.18-.541-.537v-8.86L205.676 16.3c-.09-.18 0-.269 0-.358.091-.09.181-.18.361-.18h4.331c.361 0 .632.18.632.538l1.624 7.785h.18l1.625-7.785c.09-.358.27-.537.631-.537h4.331c.361 0 .451 0 .541.179zm-77.685 15.034l-.813-8.95h-.36l-.812 8.95h1.985zm41.955-10.202c0-.268-.09-.537-.27-.716-.181-.179-.451-.268-.722-.268h-.361c-.271 0-.541.09-.722.268-.18.18-.271.448-.271.716v14.318c0 .269.091.537.271.716.181.18.451.269.722.269h.361c.271 0 .541-.09.722-.269.18-.179.27-.447.27-.716V20.774zm12.903 5.817h1.353c.271 0 .542-.09.722-.269.181-.179.271-.447.271-.715v-4.564c0-.269-.09-.537-.271-.716-.18-.18-.451-.269-.722-.269h-1.353v6.533z" fill="#000"/></svg>