<svg width="24" height="24" fill="none" xmlns="http://www.w3.org/2000/svg"><path fill-rule="evenodd" clip-rule="evenodd" d="M5.18 4.058h13.345l.092.005a3.296 3.296 0 013.112 3.29v11.373a3.295 3.295 0 01-3.296 3.295H5.273a3.295 3.295 0 01-3.296-3.295V7.353a3.296 3.296 0 013.113-3.29l.09-.005zM0 7.353a5.273 5.273 0 014.983-5.265V.99a.989.989 0 111.977 0v1.09h9.787V.99a.989.989 0 111.977 0v1.099a5.273 5.273 0 014.982 5.265v11.373a5.273 5.273 0 01-5.273 5.272H5.273A5.273 5.273 0 010 18.726V7.353zm6.237.06a.989.989 0 000 1.977h11.235a.989.989 0 000-1.978H6.237zm12.341 5.469a1.2 1.2 0 11-2.4 0 1.2 1.2 0 012.4 0zm-12.25 1.201a1.2 1.2 0 100-2.4 1.2 1.2 0 000 2.4zm5.526 0a1.2 1.2 0 100-2.4 1.2 1.2 0 000 2.4zm1.2 3.567a1.2 1.2 0 11-2.4 0 1.2 1.2 0 012.4 0zm-5.526 0a1.2 1.2 0 11-2.4 0 1.2 1.2 0 012.4 0zm9.851 1.2a1.2 1.2 0 100-2.4 1.2 1.2 0 000 2.4z" fill="#000" fill-opacity=".33"/></svg>